<mxfile host="65bd71144e">
    <diagram id="yfFHwtCzHJZ_rzFmYA07" name="ページ1">
        <mxGraphModel dx="3590" dy="1327" grid="1" gridSize="10" guides="1" tooltips="1" connect="1" arrows="1" fold="1" page="1" pageScale="1" pageWidth="827" pageHeight="1169" math="0" shadow="0">
            <root>
                <mxCell id="0"/>
                <mxCell id="1" parent="0"/>
                <mxCell id="2" value="" style="rounded=0;whiteSpace=wrap;html=1;" parent="1" vertex="1">
                    <mxGeometry x="-800" y="40" width="1480" height="1850" as="geometry"/>
                </mxCell>
                <mxCell id="90" value="" style="group" parent="1" vertex="1" connectable="0">
                    <mxGeometry x="-770" y="770" width="1430" height="496" as="geometry"/>
                </mxCell>
                <mxCell id="47" value="" style="rounded=0;whiteSpace=wrap;html=1;fontSize=11;" parent="90" vertex="1">
                    <mxGeometry width="1430" height="496" as="geometry"/>
                </mxCell>
                <mxCell id="48" value="Debounce" style="text;html=1;strokeColor=none;fillColor=none;align=center;verticalAlign=middle;whiteSpace=wrap;rounded=0;fontSize=28;" parent="90" vertex="1">
                    <mxGeometry width="160" height="50" as="geometry"/>
                </mxCell>
                <mxCell id="123" value="500ms" style="text;html=1;strokeColor=none;fillColor=none;align=center;verticalAlign=middle;whiteSpace=wrap;rounded=0;fontSize=18;" vertex="1" parent="90">
                    <mxGeometry x="330" y="120" width="60" height="30" as="geometry"/>
                </mxCell>
                <mxCell id="124" value="1000ms" style="text;html=1;strokeColor=none;fillColor=none;align=center;verticalAlign=middle;whiteSpace=wrap;rounded=0;fontSize=18;" vertex="1" parent="90">
                    <mxGeometry x="664" y="120" width="60" height="30" as="geometry"/>
                </mxCell>
                <mxCell id="125" value="1500ms" style="text;html=1;strokeColor=none;fillColor=none;align=center;verticalAlign=middle;whiteSpace=wrap;rounded=0;fontSize=18;" vertex="1" parent="90">
                    <mxGeometry x="1000" y="120" width="60" height="30" as="geometry"/>
                </mxCell>
                <mxCell id="126" value="2000ms" style="text;html=1;strokeColor=none;fillColor=none;align=center;verticalAlign=middle;whiteSpace=wrap;rounded=0;fontSize=18;" vertex="1" parent="90">
                    <mxGeometry x="1320" y="120" width="60" height="30" as="geometry"/>
                </mxCell>
                <mxCell id="3" value="" style="rounded=0;whiteSpace=wrap;html=1;fontSize=11;" parent="1" vertex="1">
                    <mxGeometry x="-770" y="90" width="1430" height="470" as="geometry"/>
                </mxCell>
                <mxCell id="7" value="" style="endArrow=classic;html=1;fontSize=36;dashed=1;strokeWidth=11;entryX=0.979;entryY=0.36;entryDx=0;entryDy=0;entryPerimeter=0;exitX=0.028;exitY=0.36;exitDx=0;exitDy=0;exitPerimeter=0;" parent="1" edge="1">
                    <mxGeometry width="50" height="50" relative="1" as="geometry">
                        <mxPoint x="-720.2399999999998" y="480.0000000000001" as="sourcePoint"/>
                        <mxPoint x="630.1799999999998" y="480.0000000000001" as="targetPoint"/>
                        <Array as="points">
                            <mxPoint x="202" y="480"/>
                        </Array>
                    </mxGeometry>
                </mxCell>
                <mxCell id="28" value="" style="group" parent="1" vertex="1" connectable="0">
                    <mxGeometry x="-760" y="170" width="962.24" height="70" as="geometry"/>
                </mxCell>
                <mxCell id="6" value="" style="endArrow=classic;html=1;fontSize=36;dashed=1;strokeWidth=11;entryX=0.979;entryY=0.36;entryDx=0;entryDy=0;entryPerimeter=0;exitX=0.028;exitY=0.36;exitDx=0;exitDy=0;exitPerimeter=0;" parent="28" edge="1">
                    <mxGeometry width="50" height="50" relative="1" as="geometry">
                        <mxPoint x="40.0000000000001" y="20.000000000000114" as="sourcePoint"/>
                        <mxPoint x="1390.4199999999998" y="20.000000000000114" as="targetPoint"/>
                        <Array as="points">
                            <mxPoint x="962.24" y="20"/>
                        </Array>
                    </mxGeometry>
                </mxCell>
                <mxCell id="10" value="0" style="ellipse;whiteSpace=wrap;html=1;aspect=fixed;fontSize=18;fillColor=#f8cecc;strokeColor=#b85450;" parent="28" vertex="1">
                    <mxGeometry width="40" height="40" as="geometry"/>
                </mxCell>
                <mxCell id="13" value="200" style="ellipse;whiteSpace=wrap;html=1;aspect=fixed;fontSize=18;fillColor=#f8cecc;strokeColor=#b85450;" parent="28" vertex="1">
                    <mxGeometry x="134" width="40" height="40" as="geometry"/>
                </mxCell>
                <mxCell id="16" value="300" style="ellipse;whiteSpace=wrap;html=1;aspect=fixed;fontSize=18;fillColor=#f8cecc;strokeColor=#b85450;" parent="28" vertex="1">
                    <mxGeometry x="204" width="40" height="40" as="geometry"/>
                </mxCell>
                <mxCell id="17" value="1200" style="ellipse;whiteSpace=wrap;html=1;aspect=fixed;fontSize=18;fillColor=#f8cecc;strokeColor=#b85450;" parent="28" vertex="1">
                    <mxGeometry x="793" width="40" height="40" as="geometry"/>
                </mxCell>
                <mxCell id="18" value="1100" style="ellipse;whiteSpace=wrap;html=1;aspect=fixed;fontSize=18;fillColor=#f8cecc;strokeColor=#b85450;" parent="28" vertex="1">
                    <mxGeometry x="730" width="40" height="40" as="geometry"/>
                </mxCell>
                <mxCell id="19" value="1000" style="ellipse;whiteSpace=wrap;html=1;aspect=fixed;fontSize=18;fillColor=#f8cecc;strokeColor=#b85450;" parent="28" vertex="1">
                    <mxGeometry x="664" width="40" height="40" as="geometry"/>
                </mxCell>
                <mxCell id="20" value="900" style="ellipse;whiteSpace=wrap;html=1;aspect=fixed;fontSize=18;fillColor=#f8cecc;strokeColor=#b85450;" parent="28" vertex="1">
                    <mxGeometry x="600" width="40" height="40" as="geometry"/>
                </mxCell>
                <mxCell id="22" value="1300" style="ellipse;whiteSpace=wrap;html=1;aspect=fixed;fontSize=18;fillColor=#f8cecc;strokeColor=#b85450;" parent="28" vertex="1">
                    <mxGeometry x="860" width="40" height="40" as="geometry"/>
                </mxCell>
                <mxCell id="119" value="500ms" style="text;html=1;strokeColor=none;fillColor=none;align=center;verticalAlign=middle;whiteSpace=wrap;rounded=0;fontSize=18;" vertex="1" parent="28">
                    <mxGeometry x="320" y="40" width="60" height="30" as="geometry"/>
                </mxCell>
                <mxCell id="120" value="1000ms" style="text;html=1;strokeColor=none;fillColor=none;align=center;verticalAlign=middle;whiteSpace=wrap;rounded=0;fontSize=18;" vertex="1" parent="28">
                    <mxGeometry x="654" y="40" width="60" height="30" as="geometry"/>
                </mxCell>
                <mxCell id="35" value="" style="group" parent="1" vertex="1" connectable="0">
                    <mxGeometry x="-760" y="260" width="40" height="40" as="geometry"/>
                </mxCell>
                <mxCell id="34" value="" style="group" parent="35" vertex="1" connectable="0">
                    <mxGeometry width="40" height="40" as="geometry"/>
                </mxCell>
                <mxCell id="32" value="" style="ellipse;whiteSpace=wrap;html=1;aspect=fixed;fontSize=18;fillColor=#f8cecc;strokeColor=#b85450;" parent="34" vertex="1">
                    <mxGeometry width="40" height="40" as="geometry"/>
                </mxCell>
                <mxCell id="36" value="0" style="ellipse;whiteSpace=wrap;html=1;aspect=fixed;fontSize=18;fillColor=#f8cecc;strokeColor=#b85450;" parent="1" vertex="1">
                    <mxGeometry x="-760" y="460" width="40" height="40" as="geometry"/>
                </mxCell>
                <mxCell id="37" value="900" style="ellipse;whiteSpace=wrap;html=1;aspect=fixed;fontSize=18;fillColor=#f8cecc;strokeColor=#b85450;" parent="1" vertex="1">
                    <mxGeometry x="-160" y="460" width="40" height="40" as="geometry"/>
                </mxCell>
                <mxCell id="38" value="" style="group" parent="1" vertex="1" connectable="0">
                    <mxGeometry x="-160" y="260" width="40" height="40" as="geometry"/>
                </mxCell>
                <mxCell id="39" value="" style="group" parent="38" vertex="1" connectable="0">
                    <mxGeometry width="40" height="40" as="geometry"/>
                </mxCell>
                <mxCell id="40" value="" style="ellipse;whiteSpace=wrap;html=1;aspect=fixed;fontSize=18;fillColor=#f8cecc;strokeColor=#b85450;" parent="39" vertex="1">
                    <mxGeometry width="40" height="40" as="geometry"/>
                </mxCell>
                <mxCell id="41" value="" style="endArrow=classic;html=1;fontSize=18;strokeWidth=6;entryX=0.657;entryY=0.404;entryDx=0;entryDy=0;entryPerimeter=0;dashed=1;dashPattern=1 2;exitX=1;exitY=0.5;exitDx=0;exitDy=0;" parent="1" source="40" target="3" edge="1">
                    <mxGeometry width="50" height="50" relative="1" as="geometry">
                        <mxPoint x="-200" y="38" as="sourcePoint"/>
                        <mxPoint x="-89.82000000000005" y="38.031999999999925" as="targetPoint"/>
                    </mxGeometry>
                </mxCell>
                <mxCell id="44" value="500ms" style="text;html=1;strokeColor=none;fillColor=none;align=center;verticalAlign=middle;whiteSpace=wrap;rounded=0;fontSize=18;" parent="1" vertex="1">
                    <mxGeometry x="-19" y="288" width="60" height="30" as="geometry"/>
                </mxCell>
                <mxCell id="45" value="&lt;font style=&quot;font-size: 28px&quot;&gt;throttle()&lt;/font&gt;" style="rounded=0;whiteSpace=wrap;html=1;fontSize=18;" parent="1" vertex="1">
                    <mxGeometry x="-740" y="344" width="1350" height="60" as="geometry"/>
                </mxCell>
                <mxCell id="46" value="Throttle" style="text;html=1;strokeColor=none;fillColor=none;align=center;verticalAlign=middle;whiteSpace=wrap;rounded=0;fontSize=28;" parent="1" vertex="1">
                    <mxGeometry x="-770" y="100" width="160" height="50" as="geometry"/>
                </mxCell>
                <mxCell id="49" value="" style="group" parent="1" vertex="1" connectable="0">
                    <mxGeometry x="-760" y="844" width="962.24" height="40" as="geometry"/>
                </mxCell>
                <mxCell id="50" value="" style="endArrow=classic;html=1;fontSize=36;dashed=1;strokeWidth=11;entryX=0.979;entryY=0.36;entryDx=0;entryDy=0;entryPerimeter=0;exitX=0.028;exitY=0.36;exitDx=0;exitDy=0;exitPerimeter=0;" parent="49" edge="1">
                    <mxGeometry width="50" height="50" relative="1" as="geometry">
                        <mxPoint x="40.0000000000001" y="20.000000000000114" as="sourcePoint"/>
                        <mxPoint x="1390.4199999999998" y="20.000000000000114" as="targetPoint"/>
                        <Array as="points">
                            <mxPoint x="962.24" y="20"/>
                        </Array>
                    </mxGeometry>
                </mxCell>
                <mxCell id="51" value="0" style="ellipse;whiteSpace=wrap;html=1;aspect=fixed;fontSize=18;fillColor=#f8cecc;strokeColor=#b85450;" parent="49" vertex="1">
                    <mxGeometry width="40" height="40" as="geometry"/>
                </mxCell>
                <mxCell id="52" value="200" style="ellipse;whiteSpace=wrap;html=1;aspect=fixed;fontSize=18;fillColor=#f8cecc;strokeColor=#b85450;" parent="49" vertex="1">
                    <mxGeometry x="134" width="40" height="40" as="geometry"/>
                </mxCell>
                <mxCell id="53" value="300" style="ellipse;whiteSpace=wrap;html=1;aspect=fixed;fontSize=18;fillColor=#f8cecc;strokeColor=#b85450;" parent="49" vertex="1">
                    <mxGeometry x="204" width="40" height="40" as="geometry"/>
                </mxCell>
                <mxCell id="54" value="1200" style="ellipse;whiteSpace=wrap;html=1;aspect=fixed;fontSize=18;fillColor=#f8cecc;strokeColor=#b85450;" parent="49" vertex="1">
                    <mxGeometry x="793" width="40" height="40" as="geometry"/>
                </mxCell>
                <mxCell id="55" value="1100" style="ellipse;whiteSpace=wrap;html=1;aspect=fixed;fontSize=18;fillColor=#f8cecc;strokeColor=#b85450;" parent="49" vertex="1">
                    <mxGeometry x="730" width="40" height="40" as="geometry"/>
                </mxCell>
                <mxCell id="56" value="1000" style="ellipse;whiteSpace=wrap;html=1;aspect=fixed;fontSize=18;fillColor=#f8cecc;strokeColor=#b85450;" parent="49" vertex="1">
                    <mxGeometry x="664" width="40" height="40" as="geometry"/>
                </mxCell>
                <mxCell id="57" value="900" style="ellipse;whiteSpace=wrap;html=1;aspect=fixed;fontSize=18;fillColor=#f8cecc;strokeColor=#b85450;" parent="49" vertex="1">
                    <mxGeometry x="600" width="40" height="40" as="geometry"/>
                </mxCell>
                <mxCell id="58" value="1300" style="ellipse;whiteSpace=wrap;html=1;aspect=fixed;fontSize=18;fillColor=#f8cecc;strokeColor=#b85450;" parent="49" vertex="1">
                    <mxGeometry x="860" width="40" height="40" as="geometry"/>
                </mxCell>
                <mxCell id="60" value="" style="group" parent="1" vertex="1" connectable="0">
                    <mxGeometry x="-280" y="940" width="55" height="70" as="geometry"/>
                </mxCell>
                <mxCell id="61" value="" style="group" parent="60" vertex="1" connectable="0">
                    <mxGeometry width="55" height="70" as="geometry"/>
                </mxCell>
                <mxCell id="69" value="" style="group" parent="61" vertex="1" connectable="0">
                    <mxGeometry x="-245" y="30" width="300" height="40" as="geometry"/>
                </mxCell>
                <mxCell id="43" value="500ms" style="text;html=1;strokeColor=none;fillColor=none;align=center;verticalAlign=middle;whiteSpace=wrap;rounded=0;fontSize=18;" parent="69" vertex="1">
                    <mxGeometry x="90" y="10" width="60" height="30" as="geometry"/>
                </mxCell>
                <mxCell id="29" value="" style="endArrow=classic;html=1;fontSize=18;strokeWidth=6;dashed=1;dashPattern=1 2;" parent="69" edge="1">
                    <mxGeometry width="50" height="50" relative="1" as="geometry">
                        <mxPoint as="sourcePoint"/>
                        <mxPoint x="300" as="targetPoint"/>
                    </mxGeometry>
                </mxCell>
                <mxCell id="63" value="" style="endArrow=none;html=1;fontSize=28;strokeWidth=6;" parent="1" edge="1">
                    <mxGeometry width="50" height="50" relative="1" as="geometry">
                        <mxPoint x="-410" y="312" as="sourcePoint"/>
                        <mxPoint x="-410" y="252" as="targetPoint"/>
                    </mxGeometry>
                </mxCell>
                <mxCell id="64" value="" style="endArrow=none;html=1;fontSize=28;strokeWidth=6;" parent="1" edge="1">
                    <mxGeometry width="50" height="50" relative="1" as="geometry">
                        <mxPoint x="170" y="310" as="sourcePoint"/>
                        <mxPoint x="170" y="250" as="targetPoint"/>
                        <Array as="points">
                            <mxPoint x="170" y="280"/>
                        </Array>
                    </mxGeometry>
                </mxCell>
                <mxCell id="74" value="" style="group" parent="1" vertex="1" connectable="0">
                    <mxGeometry x="-715" y="279" width="300" height="40" as="geometry"/>
                </mxCell>
                <mxCell id="75" value="500ms" style="text;html=1;strokeColor=none;fillColor=none;align=center;verticalAlign=middle;whiteSpace=wrap;rounded=0;fontSize=18;" parent="74" vertex="1">
                    <mxGeometry x="90" y="10" width="60" height="30" as="geometry"/>
                </mxCell>
                <mxCell id="76" value="" style="endArrow=classic;html=1;fontSize=18;strokeWidth=6;dashed=1;dashPattern=1 2;" parent="74" edge="1">
                    <mxGeometry width="50" height="50" relative="1" as="geometry">
                        <mxPoint as="sourcePoint"/>
                        <mxPoint x="300" as="targetPoint"/>
                    </mxGeometry>
                </mxCell>
                <mxCell id="62" value="" style="ellipse;whiteSpace=wrap;html=1;aspect=fixed;fontSize=18;fillColor=#f8cecc;strokeColor=#b85450;" parent="1" vertex="1">
                    <mxGeometry x="-230" y="950" width="40" height="40" as="geometry"/>
                </mxCell>
                <mxCell id="77" value="" style="endArrow=none;html=1;fontSize=28;strokeWidth=6;" parent="1" edge="1">
                    <mxGeometry width="50" height="50" relative="1" as="geometry">
                        <mxPoint x="-534" y="1000" as="sourcePoint"/>
                        <mxPoint x="-534" y="940" as="targetPoint"/>
                    </mxGeometry>
                </mxCell>
                <mxCell id="78" value="" style="group" parent="1" vertex="1" connectable="0">
                    <mxGeometry x="-270" y="950" width="700" height="70" as="geometry"/>
                </mxCell>
                <mxCell id="79" value="" style="group" parent="78" vertex="1" connectable="0">
                    <mxGeometry x="390" y="20" width="310" height="40" as="geometry"/>
                </mxCell>
                <mxCell id="80" value="500ms" style="text;html=1;strokeColor=none;fillColor=none;align=center;verticalAlign=middle;whiteSpace=wrap;rounded=0;fontSize=18;" parent="79" vertex="1">
                    <mxGeometry x="93.00000000000001" y="10" width="62.00000000000001" height="30" as="geometry"/>
                </mxCell>
                <mxCell id="81" value="" style="endArrow=classic;html=1;fontSize=18;strokeWidth=6;dashed=1;dashPattern=1 2;" parent="79" edge="1">
                    <mxGeometry width="50" height="50" relative="1" as="geometry">
                        <mxPoint as="sourcePoint"/>
                        <mxPoint x="310.00000000000006" as="targetPoint"/>
                    </mxGeometry>
                </mxCell>
                <mxCell id="83" value="" style="endArrow=none;html=1;fontSize=28;strokeWidth=6;" parent="79" edge="1">
                    <mxGeometry width="50" height="50" relative="1" as="geometry">
                        <mxPoint y="30" as="sourcePoint"/>
                        <mxPoint y="-30" as="targetPoint"/>
                    </mxGeometry>
                </mxCell>
                <mxCell id="82" value="" style="ellipse;whiteSpace=wrap;html=1;aspect=fixed;fontSize=18;fillColor=#f8cecc;strokeColor=#b85450;" parent="1" vertex="1">
                    <mxGeometry x="430" y="950" width="40" height="40" as="geometry"/>
                </mxCell>
                <mxCell id="84" value="&lt;font style=&quot;font-size: 28px&quot;&gt;debounce()&lt;/font&gt;" style="rounded=0;whiteSpace=wrap;html=1;fontSize=18;" parent="1" vertex="1">
                    <mxGeometry x="-736" y="1035" width="1350" height="60" as="geometry"/>
                </mxCell>
                <mxCell id="9" value="" style="endArrow=classic;html=1;fontSize=36;dashed=1;strokeWidth=11;entryX=0.979;entryY=0.36;entryDx=0;entryDy=0;entryPerimeter=0;exitX=0.028;exitY=0.36;exitDx=0;exitDy=0;exitPerimeter=0;" parent="1" edge="1">
                    <mxGeometry width="50" height="50" relative="1" as="geometry">
                        <mxPoint x="-719.9999999999998" y="1180" as="sourcePoint"/>
                        <mxPoint x="630.4199999999998" y="1180" as="targetPoint"/>
                        <Array as="points">
                            <mxPoint x="202.24" y="1180"/>
                        </Array>
                    </mxGeometry>
                </mxCell>
                <mxCell id="87" value="300" style="ellipse;whiteSpace=wrap;html=1;aspect=fixed;fontSize=18;fillColor=#f8cecc;strokeColor=#b85450;" parent="1" vertex="1">
                    <mxGeometry x="-230" y="1160" width="40" height="40" as="geometry"/>
                </mxCell>
                <mxCell id="89" value="1300" style="ellipse;whiteSpace=wrap;html=1;aspect=fixed;fontSize=18;fillColor=#f8cecc;strokeColor=#b85450;" parent="1" vertex="1">
                    <mxGeometry x="432" y="1161" width="40" height="40" as="geometry"/>
                </mxCell>
                <mxCell id="91" value="" style="group" parent="1" vertex="1" connectable="0">
                    <mxGeometry x="-770" y="1300" width="1430" height="496" as="geometry"/>
                </mxCell>
                <mxCell id="92" value="" style="rounded=0;whiteSpace=wrap;html=1;fontSize=11;" parent="91" vertex="1">
                    <mxGeometry width="1430" height="496" as="geometry"/>
                </mxCell>
                <mxCell id="93" value="Audit" style="text;html=1;strokeColor=none;fillColor=none;align=center;verticalAlign=middle;whiteSpace=wrap;rounded=0;fontSize=28;" parent="91" vertex="1">
                    <mxGeometry width="100" height="50" as="geometry"/>
                </mxCell>
                <mxCell id="8" value="" style="endArrow=classic;html=1;fontSize=36;dashed=1;strokeWidth=11;entryX=0.979;entryY=0.36;entryDx=0;entryDy=0;entryPerimeter=0;exitX=0.028;exitY=0.36;exitDx=0;exitDy=0;exitPerimeter=0;" parent="91" edge="1">
                    <mxGeometry width="50" height="50" relative="1" as="geometry">
                        <mxPoint x="50.00000000000021" y="417" as="sourcePoint"/>
                        <mxPoint x="1400.4199999999998" y="417" as="targetPoint"/>
                        <Array as="points">
                            <mxPoint x="972.24" y="417"/>
                        </Array>
                    </mxGeometry>
                </mxCell>
                <mxCell id="109" value="" style="ellipse;whiteSpace=wrap;html=1;aspect=fixed;fontSize=18;fillColor=#f8cecc;strokeColor=#b85450;" parent="91" vertex="1">
                    <mxGeometry x="340" y="190" width="40" height="40" as="geometry"/>
                </mxCell>
                <mxCell id="110" value="" style="group" parent="91" vertex="1" connectable="0">
                    <mxGeometry x="245" y="190" width="685" height="70" as="geometry"/>
                </mxCell>
                <mxCell id="111" value="" style="group" parent="110" vertex="1" connectable="0">
                    <mxGeometry x="381.6428571428571" y="20" width="303.35714285714283" height="40" as="geometry"/>
                </mxCell>
                <mxCell id="112" value="500ms" style="text;html=1;strokeColor=none;fillColor=none;align=center;verticalAlign=middle;whiteSpace=wrap;rounded=0;fontSize=18;" parent="111" vertex="1">
                    <mxGeometry x="91.00714285714287" y="10" width="60.67142857142858" height="30" as="geometry"/>
                </mxCell>
                <mxCell id="113" value="" style="endArrow=classic;html=1;fontSize=18;strokeWidth=6;dashed=1;dashPattern=1 2;" parent="111" edge="1">
                    <mxGeometry width="50" height="50" relative="1" as="geometry">
                        <mxPoint as="sourcePoint"/>
                        <mxPoint x="303.3571428571429" as="targetPoint"/>
                    </mxGeometry>
                </mxCell>
                <mxCell id="114" value="" style="endArrow=none;html=1;fontSize=28;strokeWidth=6;" parent="111" edge="1">
                    <mxGeometry width="50" height="50" relative="1" as="geometry">
                        <mxPoint y="30" as="sourcePoint"/>
                        <mxPoint y="-30" as="targetPoint"/>
                    </mxGeometry>
                </mxCell>
                <mxCell id="115" value="" style="ellipse;whiteSpace=wrap;html=1;aspect=fixed;fontSize=18;fillColor=#f8cecc;strokeColor=#b85450;" parent="91" vertex="1">
                    <mxGeometry x="936" y="190" width="40" height="40" as="geometry"/>
                </mxCell>
                <mxCell id="116" value="&lt;font style=&quot;font-size: 28px&quot;&gt;audit()&lt;/font&gt;" style="rounded=0;whiteSpace=wrap;html=1;fontSize=18;" parent="91" vertex="1">
                    <mxGeometry x="20" y="290" width="1350" height="60" as="geometry"/>
                </mxCell>
                <mxCell id="117" value="300" style="ellipse;whiteSpace=wrap;html=1;aspect=fixed;fontSize=18;fillColor=#f8cecc;strokeColor=#b85450;" parent="91" vertex="1">
                    <mxGeometry x="340" y="396" width="40" height="40" as="geometry"/>
                </mxCell>
                <mxCell id="118" value="1300" style="ellipse;whiteSpace=wrap;html=1;aspect=fixed;fontSize=18;fillColor=#f8cecc;strokeColor=#b85450;" parent="91" vertex="1">
                    <mxGeometry x="936" y="394" width="40" height="40" as="geometry"/>
                </mxCell>
                <mxCell id="127" value="500ms" style="text;html=1;strokeColor=none;fillColor=none;align=center;verticalAlign=middle;whiteSpace=wrap;rounded=0;fontSize=18;" vertex="1" parent="91">
                    <mxGeometry x="330" y="110" width="60" height="30" as="geometry"/>
                </mxCell>
                <mxCell id="128" value="1000ms" style="text;html=1;strokeColor=none;fillColor=none;align=center;verticalAlign=middle;whiteSpace=wrap;rounded=0;fontSize=18;" vertex="1" parent="91">
                    <mxGeometry x="664" y="110" width="60" height="30" as="geometry"/>
                </mxCell>
                <mxCell id="129" value="1500ms" style="text;html=1;strokeColor=none;fillColor=none;align=center;verticalAlign=middle;whiteSpace=wrap;rounded=0;fontSize=18;" vertex="1" parent="91">
                    <mxGeometry x="1000" y="110" width="60" height="30" as="geometry"/>
                </mxCell>
                <mxCell id="130" value="2000ms" style="text;html=1;strokeColor=none;fillColor=none;align=center;verticalAlign=middle;whiteSpace=wrap;rounded=0;fontSize=18;" vertex="1" parent="91">
                    <mxGeometry x="1320" y="110" width="60" height="30" as="geometry"/>
                </mxCell>
                <mxCell id="94" value="" style="group" parent="1" vertex="1" connectable="0">
                    <mxGeometry x="-760" y="1370" width="962.24" height="40" as="geometry"/>
                </mxCell>
                <mxCell id="95" value="" style="endArrow=classic;html=1;fontSize=36;dashed=1;strokeWidth=11;entryX=0.979;entryY=0.36;entryDx=0;entryDy=0;entryPerimeter=0;exitX=0.028;exitY=0.36;exitDx=0;exitDy=0;exitPerimeter=0;" parent="94" edge="1">
                    <mxGeometry width="50" height="50" relative="1" as="geometry">
                        <mxPoint x="40.0000000000001" y="20.000000000000114" as="sourcePoint"/>
                        <mxPoint x="1390.4199999999998" y="20.000000000000114" as="targetPoint"/>
                        <Array as="points">
                            <mxPoint x="962.24" y="20"/>
                        </Array>
                    </mxGeometry>
                </mxCell>
                <mxCell id="96" value="0" style="ellipse;whiteSpace=wrap;html=1;aspect=fixed;fontSize=18;fillColor=#f8cecc;strokeColor=#b85450;" parent="94" vertex="1">
                    <mxGeometry width="40" height="40" as="geometry"/>
                </mxCell>
                <mxCell id="97" value="200" style="ellipse;whiteSpace=wrap;html=1;aspect=fixed;fontSize=18;fillColor=#f8cecc;strokeColor=#b85450;" parent="94" vertex="1">
                    <mxGeometry x="134" width="40" height="40" as="geometry"/>
                </mxCell>
                <mxCell id="98" value="300" style="ellipse;whiteSpace=wrap;html=1;aspect=fixed;fontSize=18;fillColor=#f8cecc;strokeColor=#b85450;" parent="94" vertex="1">
                    <mxGeometry x="204" width="40" height="40" as="geometry"/>
                </mxCell>
                <mxCell id="99" value="1200" style="ellipse;whiteSpace=wrap;html=1;aspect=fixed;fontSize=18;fillColor=#f8cecc;strokeColor=#b85450;" parent="94" vertex="1">
                    <mxGeometry x="793" width="40" height="40" as="geometry"/>
                </mxCell>
                <mxCell id="100" value="1100" style="ellipse;whiteSpace=wrap;html=1;aspect=fixed;fontSize=18;fillColor=#f8cecc;strokeColor=#b85450;" parent="94" vertex="1">
                    <mxGeometry x="730" width="40" height="40" as="geometry"/>
                </mxCell>
                <mxCell id="101" value="1000" style="ellipse;whiteSpace=wrap;html=1;aspect=fixed;fontSize=18;fillColor=#f8cecc;strokeColor=#b85450;" parent="94" vertex="1">
                    <mxGeometry x="664" width="40" height="40" as="geometry"/>
                </mxCell>
                <mxCell id="102" value="900" style="ellipse;whiteSpace=wrap;html=1;aspect=fixed;fontSize=18;fillColor=#f8cecc;strokeColor=#b85450;" parent="94" vertex="1">
                    <mxGeometry x="600" width="40" height="40" as="geometry"/>
                </mxCell>
                <mxCell id="103" value="1300" style="ellipse;whiteSpace=wrap;html=1;aspect=fixed;fontSize=18;fillColor=#f8cecc;strokeColor=#b85450;" parent="94" vertex="1">
                    <mxGeometry x="860" width="40" height="40" as="geometry"/>
                </mxCell>
                <mxCell id="105" value="" style="group" parent="1" vertex="1" connectable="0">
                    <mxGeometry x="-738.6714285714286" y="1510" width="308.6714285714285" height="40" as="geometry"/>
                </mxCell>
                <mxCell id="106" value="500ms" style="text;html=1;strokeColor=none;fillColor=none;align=center;verticalAlign=middle;whiteSpace=wrap;rounded=0;fontSize=18;" parent="105" vertex="1">
                    <mxGeometry x="92.60142857142856" y="10" width="61.73428571428571" height="30" as="geometry"/>
                </mxCell>
                <mxCell id="107" value="" style="endArrow=classic;html=1;fontSize=18;strokeWidth=6;dashed=1;dashPattern=1 2;" parent="105" edge="1">
                    <mxGeometry width="50" height="50" relative="1" as="geometry">
                        <mxPoint as="sourcePoint"/>
                        <mxPoint x="308.6714285714286" as="targetPoint"/>
                    </mxGeometry>
                </mxCell>
                <mxCell id="108" value="" style="endArrow=none;html=1;fontSize=28;strokeWidth=6;" parent="105" edge="1">
                    <mxGeometry width="50" height="50" relative="1" as="geometry">
                        <mxPoint y="30" as="sourcePoint"/>
                        <mxPoint y="-30" as="targetPoint"/>
                    </mxGeometry>
                </mxCell>
                <mxCell id="121" value="1500ms" style="text;html=1;strokeColor=none;fillColor=none;align=center;verticalAlign=middle;whiteSpace=wrap;rounded=0;fontSize=18;" vertex="1" parent="1">
                    <mxGeometry x="230" y="210" width="60" height="30" as="geometry"/>
                </mxCell>
                <mxCell id="122" value="2000ms" style="text;html=1;strokeColor=none;fillColor=none;align=center;verticalAlign=middle;whiteSpace=wrap;rounded=0;fontSize=18;" vertex="1" parent="1">
                    <mxGeometry x="550" y="210" width="60" height="30" as="geometry"/>
                </mxCell>
            </root>
        </mxGraphModel>
    </diagram>
</mxfile>